# xmcd CD database file generated by Grip 3.3.1
# 
# Track frame offsets:
#       150
#       24561
#       46573
#       78585
#       101684
#       118623
#       149511
#       166189
#       186749
#       210760
#       231223
#       262432
# 
# Disc length: 3734 seconds
# 
# Revision: 2
# Processed by: cddbd v1.5.2PL0 Copyright (c) Steve Scherf et al.
# Submitted via: Grip 3.3.1
# 
DISCID=a70e940c
DTITLE=高野真之 - SOUND DRAMA BLOOD ALONE
DYEAR=2006
DGENRE=Soundtrack
TTITLE0=scene 1
TTITLE1=scene 2
TTITLE2=scene 3
TTITLE3=scene 4
TTITLE4=scene 5
TTITLE5=scene 6
TTITLE6=scene 7
TTITLE7=scene 8
TTITLE8=scene 9
TTITLE9=scene 10
TTITLE10=scene 11
TTITLE11=ボーナストラック - Cast Comment
EXTD=YEAR: 2006
EXTT0=
EXTT1=
EXTT2=
EXTT3=
EXTT4=
EXTT5=
EXTT6=
EXTT7=
EXTT8=
EXTT9=
EXTT10=
EXTT11=
PLAYORDER=
